<?xml version="1.0" encoding="UTF-8"?>
<svg id="Layer_2" data-name="Layer 2" xmlns="http://www.w3.org/2000/svg" viewBox="0 0 9650.49 3738.12">
  <defs>
    <style>
      .cls-1 {
        fill: #f6dc4c;
      }

      .cls-2, .cls-3 {
        fill: #fff;
      }

      .cls-4 {
        fill: #0f5bb7;
      }

      .cls-3 {
        font-family: Alexandria-Light, Alexandria;
        font-size: 155px;
        font-weight: 300;
      }

      .cls-5 {
        fill: #fbdf3d;
      }
    </style>
  </defs>
  <g id="Layer_1-2" data-name="Layer 1">
    <g>
      <path class="cls-1" d="M6913.28,1395.39l-3.92-108.01-14.54-408.37-4.45-154.38c-2.05-71.02-17.53-137.4-38.07-204.82-47.47-155.81-150.91-289.23-288.95-368.77-168.88-97.31-258.19-90.34-443.49-90.82l-79.99-.21-200.72-.48-329.03-3.33-399.94-4.04-392.85-4.04-414.98-3.95-122.6-.66-407.82-6.49-244.56-3.17c21.88-2.41,43.19-5.89,64.5-6.06l396.62-3.14,176.34-5.37c23.95-.03,62.34.11,78.89-.13,3.04-.04,8.92-.06,12.18-.11l421.19-5.25,319.86-4.11,655.3-7.52,110.98-.17L6287.45,0c34.24-.13,68.97,4.67,99.76,11.39,133.07,29.06,257.21,91.01,351.93,191.65,91.26,96.96,153.03,212.79,180.99,342.61,6.19,28.72,13.44,56.09,15.06,85.08,3.65,65.31,3.23,126.65.91,192.4"/>
      <path class="cls-2" d="M3805.3,397.34c19.69,15.28,39.83,32.25,60.65,45.53,3.75,4.09,8.24,8.54,12.5,12.14l31.96,27c-105.91,115.24-163.72,300.62-161.09,458.2l-123.61-154.1c-.47-1.48-3.21-7.91-5.27-10.62l-155.33-205.13c-11.19-88.62,8.39-172.56,49.03-250.7,18.38-35.35,35.55-70.84,66.51-96.65l224.65,174.32Z"/>
      <path class="cls-2" d="M3616.8,794.13l119.8,155.76-70.97-14.65-19.43-4.16c-29.72-6.36-56.85-6.63-83.8-8.39-104.75-6.84-205.97,16.38-301.16,64.6l-164.87-400.53c65.72-26.88,132.77-40.02,202.15-40.46,50.8,4.04,97.53,12.42,147.22,24.82l171.07,223.01Z"/>
      <path class="cls-1" d="M3562.29,949.83l84.38,1.2c5.37.05,9.46.3,11.66.14,22.55,3.82,53.97,5.93,76.82,15.06-168.57-5.04-338.03,35.54-476.71,131.49-9.34,6.46-24.8,10.4-34.97,13.9l-152.23-390.44c-3.99-10.22-3.85-28.25.88-36.89,3.98-7.27,15.1-13.88,26.7-17.91l150.2,363.12c100.8-53.13,205.59-78.45,313.26-79.67Z"/>
      <path class="cls-1" d="M3755,263.69l47.03,34.49c21.51,15.77,39.24,33.27,60.68,44l172.79,132.27-100.44,121.43c-29.12,35.21-52.48,72.38-77.06,111.12-40.67,75.72-72.5,151.63-98.61,232.46.39-30.89,6.91-57.52,13.85-87.31,31.5-135.18,88.3-259.81,176.47-369.14-7.22-12.95-16.42-20.32-27.29-28.61l-104.45-79.68-168.3-133.24c4.37-12.71,18.52-26.74,31.74-27.62l73.58,49.84Z"/>
      <path class="cls-4" d="M6459.91,703.22l-2.18,7.87c-.4,1.44-6.22-.88-6.24-2.37l-.09-6.44,8.5.93Z"/>
      <path class="cls-5" d="M2921.87,1147.37l9.84,383.53,13.99,401.23c12.28,352.31,308.95,651.6,653.13,653.24l124.06.59,580.94,4.57,1779.33,20.27,328.66,5.17-51.93,4.37-368.75,6.43-165.47,1.22-311.85,4.16-325.54,4.01-323.93,4.13-288.75,3.81-391.32,4.01-424.46,2.8-164.58-1.05c-184.8-1.18-378.12-89.38-500.33-222.58-75.57-82.36-129.62-179.48-163.81-282.98-26.95-81.61-33.71-160.73-31.97-245.32"/>
      <g>
        <path class="cls-2" d="M3811.41,2394.88c5.06,4.7,11.62,7.04,19.69,7.04v32.56c-13.5,0-24.97-2.78-34.43-8.36-9.46-5.57-16.39-13.56-20.79-23.98-7.92,18.63-22.44,27.94-43.56,27.94-8.51,0-16.47-2.23-23.87-6.71-7.41-4.47-13.35-10.78-17.82-18.92-4.48-8.14-6.71-17.34-6.71-27.61,0-12.76,3.11-23.98,9.35-33.66,6.23-9.68,14.85-17.12,25.85-22.33,11-5.2,23.39-7.81,37.18-7.81,5.28,0,10.04.3,14.3.88v-10.12h33.22v69.96c0,9.39,2.53,16.43,7.59,21.12ZM3718.24,2285.53c-3.67-3.66-5.5-8.06-5.5-13.2s1.83-9.53,5.5-13.2c3.66-3.66,8.06-5.5,13.2-5.5s9.53,1.84,13.2,5.5c3.66,3.67,5.5,8.07,5.5,13.2s-1.84,9.54-5.5,13.2c-3.67,3.67-8.07,5.5-13.2,5.5s-9.54-1.83-13.2-5.5ZM3762.57,2387.84c5.35-6.75,8.03-15.91,8.03-27.5v-14.96c-4.84-.73-9.17-1.1-12.98-1.1-11.88,0-21.67,2.9-29.37,8.69-7.7,5.79-11.55,13.61-11.55,23.43,0,6.9,2.27,12.21,6.82,15.95,4.54,3.74,10.41,5.61,17.6,5.61,8.94,0,16.09-3.37,21.45-10.12ZM3762.02,2285.53c-3.67-3.66-5.5-8.06-5.5-13.2s1.83-9.53,5.5-13.2c3.66-3.66,8.06-5.5,13.2-5.5s9.53,1.84,13.2,5.5c3.66,3.67,5.5,8.07,5.5,13.2s-1.84,9.54-5.5,13.2-8.07,5.5-13.2,5.5-9.54-1.83-13.2-5.5Z"/>
        <path class="cls-2" d="M3818.45,2406.53c3.3-3.08,7.52-4.62,12.65-4.62h44v32.56h-44c-5.13,0-9.35-1.54-12.65-4.62-3.3-3.08-4.95-6.96-4.95-11.66s1.65-8.58,4.95-11.66Z"/>
        <path class="cls-2" d="M3862.45,2406.53c3.3-3.08,7.52-4.62,12.65-4.62h44v32.56h-44c-5.13,0-9.35-1.54-12.65-4.62-3.3-3.08-4.95-6.96-4.95-11.66s1.65-8.58,4.95-11.66Z"/>
        <path class="cls-2" d="M4013.7,2401.92v32.56c-23.32,0-39.09-6.45-47.3-19.36-5.28,6.16-11.92,10.93-19.91,14.3-8,3.38-17.13,5.06-27.39,5.06-4.98,0-9.16-1.61-12.54-4.84-3.37-3.22-5.06-7.18-5.06-11.88s1.62-8.5,4.84-11.44c3.23-2.93,7.48-4.4,12.76-4.4,8.06,0,14.66-2.34,19.8-7.04,5.13-4.69,7.7-11.73,7.7-21.12v-44.88h33.22v44.88c0,8.36,2.34,15.04,7.04,20.02,5.42,5.43,14.37,8.14,26.84,8.14ZM3927.9,2485.96c-3.67-3.67-5.5-8.07-5.5-13.2s1.83-9.54,5.5-13.2c3.66-3.67,8.06-5.5,13.2-5.5s9.53,1.83,13.2,5.5,5.5,8.06,5.5,13.2-1.84,9.53-5.5,13.2c-3.67,3.66-8.07,5.5-13.2,5.5s-9.54-1.84-13.2-5.5ZM3971.68,2485.96c-3.67-3.67-5.5-8.07-5.5-13.2s1.83-9.54,5.5-13.2c3.66-3.67,8.06-5.5,13.2-5.5s9.53,1.83,13.2,5.5c3.66,3.66,5.5,8.06,5.5,13.2s-1.84,9.53-5.5,13.2c-3.67,3.66-8.07,5.5-13.2,5.5s-9.54-1.84-13.2-5.5Z"/>
        <path class="cls-2" d="M4001.05,2406.53c3.3-3.08,7.52-4.62,12.65-4.62h44v32.56h-44c-5.13,0-9.35-1.54-12.65-4.62-3.3-3.08-4.95-6.96-4.95-11.66s1.65-8.58,4.95-11.66Z"/>
        <path class="cls-2" d="M4045.05,2406.53c3.3-3.08,7.52-4.62,12.65-4.62h44v32.56h-44c-5.13,0-9.35-1.54-12.65-4.62-3.3-3.08-4.95-6.96-4.95-11.66s1.65-8.58,4.95-11.66Z"/>
        <path class="cls-2" d="M4129.2,2272.99h33.22v161.48h-60.72c-5.13,0-9.35-1.54-12.65-4.62-3.3-3.08-4.95-6.96-4.95-11.66s1.65-8.58,4.95-11.66c3.3-3.08,7.52-4.62,12.65-4.62h27.5v-128.92Z"/>
        <path class="cls-2" d="M4305.64,2314.36v103.18c0,23.32-5.65,41.03-16.94,53.13-11.3,12.1-27.8,18.15-49.5,18.15-9.39,0-19.36-.96-29.92-2.86l.22-32.12c9.53,1.32,17.82,1.98,24.86,1.98,13.34,0,23.1-3.05,29.26-9.13,6.16-6.09,9.24-15.87,9.24-29.37v-.66c-4.26,5.72-9.39,10.12-15.4,13.2-6.02,3.08-12.76,4.62-20.24,4.62-10.71,0-19.95-2.64-27.72-7.92-7.78-5.28-13.68-12.24-17.71-20.9-4.04-8.65-6.05-17.89-6.05-27.72,0-11.14,2.64-21.52,7.92-31.13,5.28-9.6,13.6-17.41,24.97-23.43,11.36-6.01,25.77-9.02,43.23-9.02h43.78ZM4259.22,2397.74c4.1-2.78,7.4-6.56,9.9-11.33,2.49-4.76,3.74-9.86,3.74-15.29v-23.54h-11.44c-14.96,0-25.78,2.61-32.45,7.81-6.68,5.21-10.01,11.7-10.01,19.47,0,4.55,1.1,8.91,3.3,13.09,2.2,4.18,5.39,7.56,9.57,10.12,4.18,2.57,9.05,3.85,14.63,3.85,4.4,0,8.65-1.39,12.76-4.18Z"/>
        <path class="cls-2" d="M4328.96,2401.92h78.1v-12.54c0-10.71-1.69-19.1-5.06-25.19-3.38-6.08-8.66-10.48-15.84-13.2-7.19-2.71-16.8-4.07-28.82-4.07h-16.06v-33.22h16.5c25.66,0,45.83,6.46,60.5,19.36,14.66,12.91,22,31.68,22,56.32v45.1h-111.32v-32.56Z"/>
        <path class="cls-2" d="M4587.24,2401.92v32.56h-22.88c0,15.69-3.52,27.57-10.56,35.64-7.04,8.06-17.09,12.1-30.14,12.1-8.66,0-17.9-1.62-27.72-4.84l6.38-28.6c6.74,1.61,12.02,2.42,15.84,2.42,4.54,0,7.84-1.25,9.9-3.74,2.05-2.5,3.08-6.82,3.08-12.98v-105.6h33.22v73.04h22.88Z"/>
        <path class="cls-2" d="M4574.59,2406.53c3.3-3.08,7.52-4.62,12.65-4.62h44v32.56h-44c-5.13,0-9.35-1.54-12.65-4.62-3.3-3.08-4.95-6.96-4.95-11.66s1.65-8.58,4.95-11.66Z"/>
        <path class="cls-2" d="M4618.59,2406.53c3.3-3.08,7.52-4.62,12.65-4.62h44v32.56h-44c-5.13,0-9.35-1.54-12.65-4.62-3.3-3.08-4.95-6.96-4.95-11.66s1.65-8.58,4.95-11.66Z"/>
        <path class="cls-2" d="M4769.84,2401.92v32.56c-23.32,0-39.09-6.45-47.3-19.36-5.28,6.16-11.92,10.93-19.91,14.3-8,3.38-17.13,5.06-27.39,5.06-4.98,0-9.16-1.61-12.54-4.84-3.37-3.22-5.06-7.18-5.06-11.88s1.62-8.5,4.84-11.44c3.23-2.93,7.48-4.4,12.76-4.4,8.06,0,14.66-2.34,19.8-7.04,5.13-4.69,7.7-11.73,7.7-21.12v-44.88h33.22v44.88c0,8.36,2.34,15.04,7.04,20.02,5.42,5.43,14.37,8.14,26.84,8.14ZM4684.04,2485.96c-3.67-3.67-5.5-8.07-5.5-13.2s1.83-9.54,5.5-13.2c3.66-3.67,8.06-5.5,13.2-5.5s9.53,1.83,13.2,5.5,5.5,8.06,5.5,13.2-1.84,9.53-5.5,13.2c-3.67,3.66-8.07,5.5-13.2,5.5s-9.54-1.84-13.2-5.5ZM4727.82,2485.96c-3.67-3.67-5.5-8.07-5.5-13.2s1.83-9.54,5.5-13.2c3.66-3.67,8.06-5.5,13.2-5.5s9.53,1.83,13.2,5.5c3.66,3.66,5.5,8.06,5.5,13.2s-1.84,9.53-5.5,13.2c-3.67,3.66-8.07,5.5-13.2,5.5s-9.54-1.84-13.2-5.5Z"/>
        <path class="cls-2" d="M4757.19,2406.53c3.3-3.08,7.52-4.62,12.65-4.62h44v32.56h-44c-5.13,0-9.35-1.54-12.65-4.62-3.3-3.08-4.95-6.96-4.95-11.66s1.65-8.58,4.95-11.66Z"/>
        <path class="cls-2" d="M4801.19,2406.53c3.3-3.08,7.52-4.62,12.65-4.62h44v32.56h-44c-5.13,0-9.35-1.54-12.65-4.62-3.3-3.08-4.95-6.96-4.95-11.66s1.65-8.58,4.95-11.66Z"/>
        <path class="cls-2" d="M4885.34,2328.88h33.22v105.6h-60.72c-4.98,0-9.16-1.61-12.54-4.84-3.37-3.22-5.06-7.18-5.06-11.88s1.62-8.5,4.84-11.44c3.23-2.93,7.48-4.4,12.76-4.4h27.5v-73.04ZM4866.42,2485.74c-3.67-3.67-5.5-8.07-5.5-13.2s1.83-9.54,5.5-13.2c3.66-3.67,8.06-5.5,13.2-5.5s9.53,1.83,13.2,5.5,5.5,8.06,5.5,13.2-1.84,9.53-5.5,13.2c-3.67,3.67-8.07,5.5-13.2,5.5s-9.54-1.83-13.2-5.5ZM4910.2,2485.74c-3.67-3.67-5.5-8.07-5.5-13.2s1.83-9.54,5.5-13.2c3.66-3.67,8.06-5.5,13.2-5.5s9.53,1.83,13.2,5.5c3.67,3.66,5.5,8.06,5.5,13.2s-1.83,9.53-5.5,13.2c-3.67,3.67-8.07,5.5-13.2,5.5s-9.54-1.83-13.2-5.5Z"/>
        <path class="cls-2" d="M5018.66,2401.92v32.56h-60.5v-161.48h33.22v128.92h27.28Z"/>
        <path class="cls-2" d="M5006.01,2406.53c3.3-3.08,7.52-4.62,12.65-4.62h44v32.56h-44c-5.13,0-9.35-1.54-12.65-4.62-3.3-3.08-4.95-6.96-4.95-11.66s1.65-8.58,4.95-11.66Z"/>
        <path class="cls-2" d="M5050.01,2406.53c3.3-3.08,7.52-4.62,12.65-4.62h44v32.56h-44c-5.13,0-9.35-1.54-12.65-4.62-3.3-3.08-4.95-6.96-4.95-11.66s1.65-8.58,4.95-11.66Z"/>
        <path class="cls-2" d="M5265.06,2401.92v32.56h-56.76c-8.95,0-16.43-5.28-22.44-15.84-5.87,10.56-13.35,15.84-22.44,15.84h-56.76c-4.98,0-9.16-1.61-12.54-4.84-3.37-3.22-5.06-7.18-5.06-11.88s1.62-8.5,4.84-11.44c3.23-2.93,7.48-4.4,12.76-4.4h36.74l-23.32-23.54c0-12.02,2.89-22.99,8.69-32.89,5.79-9.9,13.71-17.67,23.76-23.32,10.04-5.64,21.15-8.47,33.33-8.47s23.5,2.83,33.55,8.47c10.04,5.65,17.96,13.42,23.76,23.32,5.79,9.9,8.69,20.87,8.69,32.89l-23.54,23.54h36.74ZM5218.64,2368.7c-.44-3.22-2.13-6.52-5.06-9.9-2.94-3.37-6.86-6.19-11.77-8.47-4.92-2.27-10.23-3.41-15.95-3.41s-11.04,1.14-15.95,3.41c-4.92,2.28-8.84,5.1-11.77,8.47-2.94,3.38-4.62,6.68-5.06,9.9l32.78,33.66,32.78-33.66Z"/>
        <path class="cls-2" d="M5252.41,2406.53c3.3-3.08,7.52-4.62,12.65-4.62h44v32.56h-44c-5.13,0-9.35-1.54-12.65-4.62-3.3-3.08-4.95-6.96-4.95-11.66s1.65-8.58,4.95-11.66Z"/>
        <path class="cls-2" d="M5296.41,2406.53c3.3-3.08,7.52-4.62,12.65-4.62h44v32.56h-44c-5.13,0-9.35-1.54-12.65-4.62-3.3-3.08-4.95-6.96-4.95-11.66s1.65-8.58,4.95-11.66Z"/>
        <path class="cls-2" d="M5463.61,2322.06c9.02,5.58,16.13,13.17,21.34,22.77,5.21,9.61,7.81,20.21,7.81,31.79s-2.57,22.41-7.7,31.13c-5.14,8.73-11.96,15.37-20.46,19.91-8.51,4.55-17.82,6.82-27.94,6.82-7.92,0-15.73-1.39-23.43-4.18-7.7-2.79-14.85-6.96-21.45-12.54-4.4,5.43-9.94,9.57-16.61,12.43-6.68,2.86-14.05,4.29-22.11,4.29-4.98,0-9.16-1.61-12.54-4.84-3.37-3.22-5.06-7.18-5.06-11.88s1.62-8.5,4.84-11.44c3.23-2.93,7.48-4.4,12.76-4.4,4.69,0,8.28-.84,10.78-2.53,2.49-1.68,4.29-3.99,5.39-6.93,1.1-2.93,2.38-7.48,3.85-13.64,1.46-6.3,2.49-10.41,3.08-12.32,4.54-16.72,11.69-29.7,21.45-38.94,9.75-9.24,21.59-13.86,35.53-13.86,11.29,0,21.45,2.79,30.47,8.36ZM5451.62,2396.97c5.28-4.76,7.92-11.55,7.92-20.35s-2.42-15.58-7.26-21.23c-4.84-5.64-11.22-8.47-19.14-8.47-6.02,0-10.89,2.02-14.63,6.05-3.74,4.04-7.08,10.45-10.01,19.25-1.47,4.26-2.57,8.73-3.3,13.42-.29,1.03-.55,2.24-.77,3.63-.22,1.4-.63,2.97-1.21,4.73,4.25,3.38,8.87,5.91,13.86,7.59,4.98,1.69,9.83,2.53,14.52,2.53,8.06,0,14.74-2.38,20.02-7.15ZM5526.42,2401.92v32.56c-19.66,0-33.77-4.4-42.35-13.2s-12.87-22.14-12.87-40.04c0-3.22.07-5.72.22-7.48h21.12c0,8.36,2.34,15.04,7.04,20.02,5.42,5.43,14.37,8.14,26.84,8.14Z"/>
        <path class="cls-2" d="M5513.77,2406.53c3.3-3.08,7.52-4.62,12.65-4.62h44v32.56h-44c-5.13,0-9.35-1.54-12.65-4.62-3.3-3.08-4.95-6.96-4.95-11.66s1.65-8.58,4.95-11.66Z"/>
        <path class="cls-2" d="M5557.77,2406.53c3.3-3.08,7.52-4.62,12.65-4.62h44v32.56h-44c-5.13,0-9.35-1.54-12.65-4.62-3.3-3.08-4.95-6.96-4.95-11.66s1.65-8.58,4.95-11.66Z"/>
        <path class="cls-2" d="M5641.92,2328.88h33.22v105.6h-60.72c-4.98,0-9.16-1.61-12.54-4.84-3.37-3.22-5.06-7.18-5.06-11.88s1.62-8.5,4.84-11.44c3.23-2.93,7.48-4.4,12.76-4.4h27.5v-73.04ZM5635.1,2485.96c-3.67-3.67-5.5-8.07-5.5-13.2s1.83-9.54,5.5-13.2c3.67-3.67,8.06-5.5,13.2-5.5s9.53,1.83,13.2,5.5,5.5,8.06,5.5,13.2-1.84,9.53-5.5,13.2c-3.67,3.66-8.07,5.5-13.2,5.5s-9.54-1.84-13.2-5.5Z"/>
        <path class="cls-2" d="M5871.27,2321.61c9.02,5.58,16.09,13.2,21.23,22.88,5.13,9.68,7.7,20.46,7.7,32.34s-2.53,22.41-7.59,31.13c-5.06,8.73-11.81,15.33-20.24,19.8-8.44,4.48-17.64,6.71-27.61,6.71-11,0-21.42-2.56-31.24-7.7-.44,20.68-4.73,36.15-12.87,46.42-8.14,10.26-20.42,15.4-36.85,15.4-6.16,0-13.28-.81-21.34-2.42v-32.34c7.04,1.9,13.05,2.86,18.04,2.86,7.62,0,12.87-2.53,15.73-7.59,2.86-5.06,4.29-13.31,4.29-24.75v-40.92c0-13.64,2.46-25.77,7.37-36.41,4.91-10.63,11.91-18.92,21.01-24.86,9.09-5.94,19.65-8.91,31.68-8.91s21.67,2.79,30.69,8.36ZM5859.06,2397.07c5.28-4.69,7.92-11.44,7.92-20.24s-2.31-16.24-6.93-21.89c-4.62-5.64-10.97-8.47-19.03-8.47-8.95,0-15.77,3.27-20.46,9.79-4.7,6.53-6.97,15.59-6.82,27.17v12.76c8.21,5.28,16.64,7.92,25.3,7.92,8.06,0,14.74-2.34,20.02-7.04ZM5933.86,2401.92v32.56c-19.66,0-33.77-4.4-42.35-13.2s-12.87-22.14-12.87-40.04c0-3.22.07-5.72.22-7.48h21.12c0,8.36,2.34,15.04,7.04,20.02,5.42,5.43,14.37,8.14,26.84,8.14Z"/>
        <path class="cls-2" d="M5921.21,2406.53c3.3-3.08,7.52-4.62,12.65-4.62h44v32.56h-44c-5.13,0-9.35-1.54-12.65-4.62-3.3-3.08-4.95-6.96-4.95-11.66s1.65-8.58,4.95-11.66Z"/>
        <path class="cls-2" d="M5965.21,2406.53c3.3-3.08,7.52-4.62,12.65-4.62h44v32.56h-44c-5.13,0-9.35-1.54-12.65-4.62-3.3-3.08-4.95-6.96-4.95-11.66s1.65-8.58,4.95-11.66Z"/>
        <path class="cls-2" d="M6099.3,2201.94v15.18c0,5.72-1.91,10.53-5.72,14.41-3.82,3.88-8.51,5.83-14.08,5.83-5.28,0-9.83-1.91-13.64-5.72-3.52,3.81-8.07,5.72-13.64,5.72s-10.45-1.91-14.19-5.72c-3.74-3.81-5.61-8.65-5.61-14.52v-15.4h12.1v15.4c0,2.5.69,4.48,2.09,5.94,1.39,1.47,3.26,2.2,5.61,2.2s4.25-.77,5.72-2.31c1.46-1.54,2.2-3.48,2.2-5.83v-15.4h11.88v15.4c0,2.5.66,4.48,1.98,5.94,1.32,1.47,3.15,2.2,5.5,2.2,2.49,0,4.43-.73,5.83-2.2,1.39-1.46,2.09-3.44,2.09-5.94v-15.18h11.88ZM6098.86,2186.32l-66,11.66.22-12.1,65.78-11.22v11.66Z"/>
        <path class="cls-2" d="M6116.46,2401.92v32.56c-23.32,0-39.09-6.45-47.3-19.36-5.28,6.16-11.92,10.93-19.91,14.3-8,3.38-17.12,5.06-27.39,5.06-5.13,0-9.35-1.54-12.65-4.62-3.3-3.08-4.95-6.96-4.95-11.66s1.65-8.58,4.95-11.66c3.3-3.08,7.52-4.62,12.65-4.62,8.06,0,14.66-2.34,19.8-7.04,5.13-4.69,7.7-11.73,7.7-21.12v-100.76h33.22v100.76c0,8.36,2.34,15.04,7.04,20.02,5.42,5.43,14.37,8.14,26.84,8.14Z"/>
        <path class="cls-2" d="M6103.81,2406.53c3.3-3.08,7.52-4.62,12.65-4.62h44v32.56h-44c-5.13,0-9.35-1.54-12.65-4.62-3.3-3.08-4.95-6.96-4.95-11.66s1.65-8.58,4.95-11.66Z"/>
        <path class="cls-2" d="M6147.81,2406.53c3.3-3.08,7.52-4.62,12.65-4.62h44v32.56h-44c-5.13,0-9.35-1.54-12.65-4.62-3.3-3.08-4.95-6.96-4.95-11.66s1.65-8.58,4.95-11.66Z"/>
        <path class="cls-2" d="M6362.86,2401.92v32.56h-56.76c-8.95,0-16.43-5.28-22.44-15.84-5.87,10.56-13.35,15.84-22.44,15.84h-56.76c-4.98,0-9.16-1.61-12.54-4.84-3.37-3.22-5.06-7.18-5.06-11.88s1.62-8.5,4.84-11.44c3.23-2.93,7.48-4.4,12.76-4.4h36.74l-23.32-23.54c0-12.02,2.89-22.99,8.69-32.89,5.79-9.9,13.71-17.67,23.76-23.32,10.04-5.64,21.15-8.47,33.33-8.47s23.5,2.83,33.55,8.47c10.04,5.65,17.96,13.42,23.76,23.32,5.79,9.9,8.69,20.87,8.69,32.89l-23.54,23.54h36.74ZM6316.44,2368.7c-.44-3.22-2.13-6.52-5.06-9.9-2.94-3.37-6.86-6.19-11.77-8.47-4.92-2.27-10.23-3.41-15.95-3.41s-11.04,1.14-15.95,3.41c-4.92,2.28-8.84,5.1-11.77,8.47-2.94,3.38-4.62,6.68-5.06,9.9l32.78,33.66,32.78-33.66Z"/>
        <path class="cls-2" d="M6350.21,2406.53c3.3-3.08,7.52-4.62,12.65-4.62h44v32.56h-44c-5.13,0-9.35-1.54-12.65-4.62-3.3-3.08-4.95-6.96-4.95-11.66s1.65-8.58,4.95-11.66Z"/>
        <path class="cls-2" d="M6394.21,2406.53c3.3-3.08,7.52-4.62,12.65-4.62h44v32.56h-44c-5.13,0-9.35-1.54-12.65-4.62-3.3-3.08-4.95-6.96-4.95-11.66s1.65-8.58,4.95-11.66Z"/>
        <path class="cls-2" d="M6478.36,2328.88h33.22v105.6h-60.72c-4.98,0-9.16-1.61-12.54-4.84-3.37-3.22-5.06-7.18-5.06-11.88s1.62-8.5,4.84-11.44c3.23-2.93,7.48-4.4,12.76-4.4h27.5v-73.04ZM6459.44,2303.57c-3.67-3.66-5.5-8.06-5.5-13.2s1.83-9.53,5.5-13.2c3.66-3.67,8.06-5.5,13.2-5.5s9.53,1.83,13.2,5.5c3.66,3.67,5.5,8.07,5.5,13.2s-1.84,9.54-5.5,13.2-8.07,5.5-13.2,5.5-9.54-1.83-13.2-5.5ZM6503.22,2303.57c-3.67-3.66-5.5-8.06-5.5-13.2s1.83-9.53,5.5-13.2c3.66-3.67,8.06-5.5,13.2-5.5s9.53,1.83,13.2,5.5c3.67,3.67,5.5,8.07,5.5,13.2s-1.83,9.54-5.5,13.2c-3.67,3.67-8.07,5.5-13.2,5.5s-9.54-1.83-13.2-5.5Z"/>
      </g>
      <text/>
      <text/>
      <g>
        <path class="cls-2" d="M4561.27,331.64c23.19-23.11,64.57-3.26,70.71,26.3,23.42,93.9,2.65,191.2-18.19,283.58-29.02,121.71-44.94,246.6-45.24,371.79,1.36,20.99-.91,44.94,12.81,62.6,15.01,12.58,36.15,9.09,54.03,13.57,18.34.91,28.19,24.25,18.42,38.88-18.64,22.13-53.81,29.33-62.45,59.72-9.85,22.81-.99,47.52,4.77,70.18,13.41,44.71,22.66,90.79,39.41,134.52,7.2,20.54,17.51,41.91,13.41,64.26-6.21,10.69-15.54,21.67-28.42,23.87-34.78,6.37-70.48,5.38-105.57,1.82-46.99-3.64-93.97-31.15-113.52-75.25-24.55-61.91-38.65-128.38-70.63-187.18-6.97-17.2-28.04-12.2-42.67-13.57-108.45,1.59-217.12-3.41-325.34,6.29-45.92,4.55-94.96-3.18-137.55,18.49-40.01,19.32-63.2,59.11-90.33,92.38-108.52,137.7-223.26,271.08-349.82,392.71-12.81,12.43-21.14,28.8-35.09,40.24-19.17,15.76-30.77,40.54-54.56,50.62-39.71,20.61-79.88,43.04-124.28,51.08-27.05,5.68-62.6-15.99-54.87-46.68,163.01-206.13,346.25-395.21,527.15-585.58-66.31.99-135.12,8.56-198.86-14.25-22.73-7.2-23.72-36.53-11.52-53.43,38.27-60.63,108.29-99.35,179.99-100.11,48.43-4.47,97.23,15.69,144.9.91,54.34-14.93,90.03-61.84,127.62-100.49,152.02-148.69,303.66-297.98,463.57-438.25,69.19-64.72,142.93-124.36,212.12-189ZM4357.64,650.16c-109.73,115.19-219.7,230.23-329.81,345.12-21.9,24.02-46.61,45.62-66.23,71.69.15,3.41.53,10.23.76,13.64,70.1,7.35,141.49.99,212.12,3.11,50.02-2.12,100.72,4.93,150.13-4.32,5.68-19.1,3.79-39.1,3.71-58.73-4.32-133.38,24.78-264.94,57.06-393.62-10.23,6.52-19.55,14.25-27.74,23.11Z"/>
        <path class="cls-2" d="M4926.24,339.37c54.41-15.31,123.6-5.23,157.48,44.33,23.72,42.59,5.68,91.55,5.38,136.94-.99,209.54,1.74,419.08-.23,628.62,1.52,66.23-3.33,132.77,3.49,198.86-1.89,11.44,10.76,14.32,19.4,12.81,48.73,3.79,97.53,2.88,146.34.61,199.61-.53,399.23.23,598.76-.3,32.13.23,71.39-8.41,96.47,17.28,15.31,23.8,13.79,54.11,10.99,81.16-1.52,23.57-26.22,36.3-47.06,39.03-65.48,5.91-131.26-1.89-196.81-.68-217.27,1.14-434.54-2.5-651.74,2.5-72.45-1.82-145.28,4.62-217.27-5.91.3-357.39.15-714.79,0-1072.26.38-41.6,38.95-70.33,74.8-82.98Z"/>
      </g>
      <text class="cls-3" transform="translate(3546.5898 1784.8636)"><tspan x="0" y="0">Alamjad Center for Languages and Training</tspan></text>
      <path class="cls-2" d="M5920.82,425.54c131.03-4.24,265.24-6.74,391.87,32.74,90.26,28.04,178.92,72.9,238.79,148.08,13.49,18.57,33.42,37.97,30.46,62.9-12.66,20.84-39.56,24.55-61.08,31-39.71,9.4-86.62,15.69-121.78-10-33.34-20.76-40.77-64.11-71.54-87.53-43.04-34.71-98.59-46.53-150.73-61.01-144.06-36.98-301.09-26.3-436.36,36.83-56.69,24.1-110.57,60.4-143.46,113.67-51,82.76-55.93,187.18-32.74,279.79,18.26,77.83,73.43,146.19,146.56,179,87.98,39.56,182.64,67.75,279.56,70.48,115.8,5.38,231.06-27.81,331.1-85.18,33.88-20.61,63.35-50.09,79.65-86.7,8.41-18.04,17.05-38.5,36.68-46.91,39.94-17.51,85.03-9.32,125.8.83,15.84,4.4,36.07,8.79,41.83,26.75,3.79,16.44-.08,33.95-9.4,47.89-38.88,60.55-89.73,114.43-152.93,149.75-79.19,47.06-170.89,65.02-260.39,80.86-210.15,35.16-434.24,12.5-623.7-89.05-86.77-47.74-157.02-127.39-186.28-222.73-33.88-109.73-30.69-237.43,35.01-335.04,53.58-79.19,136.49-134.29,223.86-170.21,91.09-40.39,190.44-57.6,289.19-66.23Z"/>
      <g>
        <path class="cls-2" d="M3783.31,2057.62v31.3c-11.42,0-20.83-1.55-28.23-4.65-7.4-3.1-13.08-7.75-17.02-13.96-5.22,6.06-11.7,10.68-19.45,13.85-7.75,3.17-16.49,4.76-26.22,4.76h-56.25c-13.11,0-25.27-2.54-36.48-7.61s-20.16-12.33-26.86-21.78c-6.7-9.44-10.04-20.44-10.04-32.99,0-8.74,1.9-18.26,5.71-28.55h29.82c-2.68,8.88-4.02,16.57-4.02,23.05,0,11.56,3.56,20.55,10.68,26.96,7.12,6.42,17.52,9.62,31.19,9.62h56.25c9.16,0,15.86-2.15,20.09-6.45,4.23-4.3,6.34-11.17,6.34-20.62v-43.14h31.93v43.14c0,8.04,2.25,14.45,6.77,19.24,5.21,5.22,13.81,7.82,25.8,7.82ZM3642.69,2138.4c-3.53-3.53-5.29-7.75-5.29-12.69s1.76-9.17,5.29-12.69c3.52-3.53,7.75-5.29,12.69-5.29s9.16,1.76,12.69,5.29c3.52,3.52,5.29,7.75,5.29,12.69s-1.76,9.16-5.29,12.69c-3.53,3.52-7.75,5.29-12.69,5.29s-9.17-1.76-12.69-5.29Z"/>
        <path class="cls-2" d="M3771.15,2062.07c3.17-2.96,7.23-4.44,12.16-4.44h42.29v31.3h-42.29c-4.93,0-8.99-1.48-12.16-4.44-3.17-2.96-4.76-6.69-4.76-11.21s1.59-8.25,4.76-11.21Z"/>
        <path class="cls-2" d="M3813.45,2062.07c3.17-2.96,7.23-4.44,12.16-4.44h42.29v31.3h-42.29c-4.93,0-8.99-1.48-12.16-4.44-3.17-2.96-4.76-6.69-4.76-11.21s1.59-8.25,4.76-11.21Z"/>
        <path class="cls-2" d="M3855.74,2062.07c3.17-2.96,7.23-4.44,12.16-4.44h42.29v31.3h-42.29c-4.93,0-8.99-1.48-12.16-4.44-3.17-2.96-4.76-6.69-4.76-11.21s1.59-8.25,4.76-11.21Z"/>
        <path class="cls-2" d="M3936.62,1987.42h31.93v101.5h-58.36c-4.79,0-8.81-1.55-12.05-4.65-3.24-3.1-4.86-6.91-4.86-11.42s1.55-8.17,4.65-11c3.1-2.82,7.19-4.23,12.27-4.23h26.43v-70.21ZM3918.44,2138.19c-3.53-3.53-5.29-7.75-5.29-12.69s1.76-9.17,5.29-12.69c3.52-3.53,7.75-5.29,12.69-5.29s9.16,1.76,12.69,5.29,5.29,7.75,5.29,12.69-1.76,9.16-5.29,12.69c-3.53,3.52-7.75,5.29-12.69,5.29s-9.17-1.76-12.69-5.29ZM3960.52,2138.19c-3.53-3.53-5.29-7.75-5.29-12.69s1.76-9.17,5.29-12.69c3.52-3.53,7.75-5.29,12.69-5.29s9.16,1.76,12.69,5.29,5.29,7.75,5.29,12.69-1.76,9.16-5.29,12.69c-3.53,3.52-7.75,5.29-12.69,5.29s-9.17-1.76-12.69-5.29Z"/>
        <path class="cls-2" d="M4025.23,2104.99c4.37,0,7.54-1.2,9.52-3.59,1.97-2.4,2.96-6.56,2.96-12.48v-101.5h31.93v101.5c0,15.08-3.38,26.5-10.15,34.26-6.77,7.75-16.43,11.63-28.97,11.63-8.32,0-17.2-1.55-26.64-4.65l6.13-27.49c6.48,1.55,11.56,2.33,15.23,2.33Z"/>
        <path class="cls-2" d="M4222.53,2057.62v31.3h-128.36v-31.3h75.07v-12.05c0-10.29-1.62-18.36-4.86-24.21-3.24-5.85-8.32-10.08-15.23-12.69-6.91-2.61-16.14-3.91-27.7-3.91h-15.44v-31.93h15.86c24.67,0,44.05,6.21,58.15,18.61,14.1,12.41,21.15,30.45,21.15,54.13v12.05h21.36Z"/>
        <path class="cls-2" d="M4313.46,2057.62v31.3c-22.42,0-37.57-6.2-45.47-18.61-5.08,5.92-11.46,10.5-19.14,13.75-7.69,3.24-16.46,4.86-26.33,4.86-4.79,0-8.81-1.55-12.05-4.65-3.24-3.1-4.86-6.91-4.86-11.42s1.55-8.17,4.65-11c3.1-2.82,7.19-4.23,12.26-4.23,7.75,0,14.1-2.25,19.03-6.77,4.93-4.51,7.4-11.28,7.4-20.3v-43.14h31.93v43.14c0,8.04,2.25,14.45,6.77,19.24,5.21,5.22,13.81,7.82,25.8,7.82ZM4231.2,1963.1c-3.53-3.52-5.29-7.75-5.29-12.69s1.76-9.16,5.29-12.69c3.52-3.52,7.75-5.29,12.69-5.29s9.16,1.76,12.69,5.29c3.52,3.53,5.29,7.75,5.29,12.69s-1.76,9.17-5.29,12.69c-3.53,3.53-7.75,5.29-12.69,5.29s-9.17-1.76-12.69-5.29ZM4273.28,1963.1c-3.53-3.52-5.29-7.75-5.29-12.69s1.76-9.16,5.29-12.69c3.52-3.52,7.75-5.29,12.69-5.29s9.16,1.76,12.69,5.29c3.52,3.53,5.29,7.75,5.29,12.69s-1.76,9.17-5.29,12.69c-3.53,3.53-7.75,5.29-12.69,5.29s-9.17-1.76-12.69-5.29Z"/>
        <path class="cls-2" d="M4339.89,1933.71h31.93v155.22h-58.36c-4.93,0-8.99-1.48-12.16-4.44-3.17-2.96-4.76-6.69-4.76-11.21s1.59-8.25,4.76-11.21c3.17-2.96,7.23-4.44,12.16-4.44h26.43v-123.92Z"/>
        <path class="cls-2" d="M4396.35,1933.71h31.93v155.22h-31.93v-155.22Z"/>
        <path class="cls-2" d="M4568.06,1973.46v99.18c0,22.42-5.43,39.44-16.28,51.07-10.86,11.63-26.72,17.45-47.58,17.45-9.02,0-18.61-.92-28.76-2.75l.21-30.87c9.16,1.27,17.13,1.9,23.9,1.9,12.83,0,22.2-2.93,28.12-8.78,5.92-5.85,8.88-15.26,8.88-28.23v-.63c-4.09,5.5-9.02,9.73-14.8,12.69-5.78,2.96-12.27,4.44-19.45,4.44-10.29,0-19.17-2.54-26.64-7.61-7.47-5.08-13.15-11.77-17.02-20.09-3.88-8.32-5.82-17.2-5.82-26.64,0-10.71,2.54-20.69,7.61-29.92,5.08-9.23,13.07-16.74,24-22.52,10.92-5.78,24.77-8.67,41.55-8.67h42.08ZM4523.44,2053.61c3.95-2.68,7.12-6.31,9.52-10.89,2.4-4.58,3.59-9.48,3.59-14.7v-22.63h-11c-14.38,0-24.78,2.5-31.19,7.51-6.42,5.01-9.62,11.24-9.62,18.71,0,4.37,1.06,8.56,3.17,12.58,2.11,4.02,5.18,7.26,9.2,9.73,4.02,2.47,8.7,3.7,14.06,3.7,4.23,0,8.32-1.34,12.27-4.02Z"/>
        <path class="cls-2" d="M4674.53,2081.31c-11.21-5.08-20.16-12.33-26.86-21.78-6.7-9.44-10.04-20.44-10.04-32.99,0-8.74,1.9-18.26,5.71-28.55h29.82c-2.68,8.88-4.02,16.57-4.02,23.05,0,11.56,3.56,20.55,10.68,26.96,7.12,6.42,17.52,9.62,31.19,9.62h82.68v-70.21h31.93v101.5h-114.61c-13.11,0-25.27-2.54-36.48-7.61ZM4697.69,1967.33c-3.53-3.52-5.29-7.75-5.29-12.69s1.76-9.16,5.29-12.69c3.52-3.52,7.75-5.29,12.69-5.29s9.16,1.76,12.69,5.29c3.52,3.53,5.29,7.75,5.29,12.69s-1.76,9.17-5.29,12.69c-3.53,3.53-7.75,5.29-12.69,5.29s-9.17-1.76-12.69-5.29ZM4739.77,1967.33c-3.53-3.52-5.29-7.75-5.29-12.69s1.76-9.16,5.29-12.69c3.52-3.52,7.75-5.29,12.69-5.29s9.16,1.76,12.69,5.29c3.52,3.53,5.29,7.75,5.29,12.69s-1.76,9.17-5.29,12.69c-3.53,3.53-7.75,5.29-12.69,5.29s-9.17-1.76-12.69-5.29Z"/>
        <path class="cls-2" d="M4908.31,2057.62v31.3h-58.15v-155.22h31.93v123.92h26.22Z"/>
        <path class="cls-2" d="M4896.15,2062.07c3.17-2.96,7.23-4.44,12.16-4.44h42.29v31.3h-42.29c-4.93,0-8.99-1.48-12.16-4.44-3.17-2.96-4.76-6.69-4.76-11.21s1.59-8.25,4.76-11.21Z"/>
        <path class="cls-2" d="M4938.44,2062.07c3.17-2.96,7.23-4.44,12.16-4.44h42.29v31.3h-42.29c-4.93,0-8.99-1.48-12.16-4.44-3.17-2.96-4.76-6.69-4.76-11.21s1.59-8.25,4.76-11.21Z"/>
        <path class="cls-2" d="M4980.73,2062.07c3.17-2.96,7.23-4.44,12.16-4.44h42.29v31.3h-42.29c-4.93,0-8.99-1.48-12.16-4.44-3.17-2.96-4.76-6.69-4.76-11.21s1.59-8.25,4.76-11.21Z"/>
        <path class="cls-2" d="M5023.03,2062.07c3.17-2.96,7.23-4.44,12.16-4.44h42.29v31.3h-42.29c-4.93,0-8.99-1.48-12.16-4.44-3.17-2.96-4.76-6.69-4.76-11.21s1.59-8.25,4.76-11.21Z"/>
        <path class="cls-2" d="M5229.74,2057.62v31.3h-54.56c-8.6,0-15.79-5.08-21.57-15.23-5.64,10.15-12.83,15.23-21.57,15.23h-54.56c-4.79,0-8.81-1.55-12.05-4.65-3.24-3.1-4.86-6.91-4.86-11.42s1.55-8.17,4.65-11c3.1-2.82,7.19-4.23,12.26-4.23h35.31l-22.42-22.63c0-11.56,2.78-22.1,8.35-31.61,5.57-9.52,13.18-16.99,22.84-22.42,9.65-5.43,20.33-8.14,32.04-8.14s22.59,2.72,32.25,8.14c9.65,5.43,17.27,12.9,22.84,22.42,5.57,9.52,8.35,20.06,8.35,31.61l-22.63,22.63h35.31ZM5185.12,2025.69c-.42-3.1-2.05-6.27-4.86-9.52-2.82-3.24-6.59-5.95-11.31-8.14-4.72-2.18-9.83-3.28-15.33-3.28s-10.61,1.09-15.33,3.28c-4.73,2.19-8.5,4.9-11.31,8.14-2.82,3.25-4.44,6.42-4.86,9.52l31.51,32.35,31.51-32.35ZM5140.71,1952.95c-3.53-3.52-5.29-7.75-5.29-12.69s1.76-9.16,5.29-12.69,7.75-5.29,12.69-5.29,9.16,1.76,12.69,5.29c3.52,3.53,5.29,7.75,5.29,12.69s-1.76,9.17-5.29,12.69c-3.53,3.53-7.75,5.29-12.69,5.29s-9.17-1.76-12.69-5.29Z"/>
        <path class="cls-2" d="M5320.67,2057.62v31.3c-22.42,0-37.57-6.2-45.47-18.61-5.08,5.92-11.46,10.5-19.14,13.75-7.69,3.24-16.46,4.86-26.33,4.86-4.93,0-8.99-1.48-12.16-4.44-3.17-2.96-4.76-6.69-4.76-11.21s1.59-8.25,4.76-11.21c3.17-2.96,7.23-4.44,12.16-4.44,7.75,0,14.1-2.25,19.03-6.77,4.93-4.51,7.4-11.28,7.4-20.3v-96.85h31.93v96.85c0,8.04,2.25,14.45,6.77,19.24,5.21,5.22,13.81,7.82,25.8,7.82Z"/>
        <path class="cls-2" d="M5347.1,1933.71h31.93v155.22h-58.36c-4.93,0-8.99-1.48-12.16-4.44-3.17-2.96-4.76-6.69-4.76-11.21s1.59-8.25,4.76-11.21c3.17-2.96,7.23-4.44,12.16-4.44h26.43v-123.92Z"/>
        <path class="cls-2" d="M5447.97,2057.62h75.07v-12.05c0-10.29-1.62-18.36-4.86-24.21-3.24-5.85-8.32-10.08-15.23-12.69-6.91-2.61-16.14-3.91-27.7-3.91h-15.44v-31.93h15.86c24.67,0,44.05,6.21,58.15,18.61,14.1,12.41,21.15,30.45,21.15,54.13v43.35h-107v-31.3Z"/>
        <path class="cls-2" d="M5637.65,2057.62v31.3h-58.15v-155.22h31.93v123.92h26.22Z"/>
        <path class="cls-2" d="M5625.49,2062.07c3.17-2.96,7.23-4.44,12.16-4.44h42.29v31.3h-42.29c-4.93,0-8.99-1.48-12.16-4.44-3.17-2.96-4.76-6.69-4.76-11.21s1.59-8.25,4.76-11.21Z"/>
        <path class="cls-2" d="M5625.49,2062.07c3.17-2.96,7.23-4.44,12.16-4.44h42.29v31.3h-42.29c-4.93,0-8.99-1.48-12.16-4.44-3.17-2.96-4.76-6.69-4.76-11.21s1.59-8.25,4.76-11.21Z"/>
        <path class="cls-2" d="M5667.79,2062.07c3.17-2.96,7.23-4.44,12.16-4.44h42.29v31.3h-42.29c-4.93,0-8.99-1.48-12.16-4.44-3.17-2.96-4.76-6.69-4.76-11.21s1.59-8.25,4.76-11.21Z"/>
        <path class="cls-2" d="M5710.08,2062.07c3.17-2.96,7.23-4.44,12.16-4.44h42.29v31.3h-42.29c-4.93,0-8.99-1.48-12.16-4.44-3.17-2.96-4.76-6.69-4.76-11.21s1.59-8.25,4.76-11.21Z"/>
        <path class="cls-2" d="M5752.37,2062.07c3.17-2.96,7.23-4.44,12.16-4.44h42.29v31.3h-42.29c-4.93,0-8.99-1.48-12.16-4.44-3.17-2.96-4.76-6.69-4.76-11.21s1.59-8.25,4.76-11.21Z"/>
        <path class="cls-2" d="M5953.58,2057.62v31.3h-146.55c-5.64,0-10.01-1.55-13.11-4.65-3.1-3.1-4.65-6.77-4.65-11s1.55-7.89,4.65-11c3.1-3.1,7.47-4.65,13.11-4.65h93.04c-.14-.56-.28-1.2-.42-1.9-.14-.7-.28-1.55-.42-2.54-1.83-10.71-4.27-19.21-7.3-25.48-3.03-6.27-6.95-11.1-11.74-14.49-9.73-6.77-21.85-10.15-36.37-10.15-7.9,0-15.79,1.13-23.68,3.38l-3.59-29.39c10.57-2.82,21.07-4.23,31.51-4.23,19.17,0,36.02,4.86,50.54,14.59,8.46,5.64,15.29,13.39,20.51,23.26,5.21,9.87,9.16,22.35,11.84,37.43.56,3.1,1.51,5.32,2.85,6.66,1.34,1.34,3.07,2.15,5.18,2.43,2.11.28,5.29.42,9.52.42h5.08ZM5863.71,2138.4c-3.53-3.53-5.29-7.75-5.29-12.69s1.76-9.17,5.29-12.69c3.52-3.53,7.75-5.29,12.69-5.29s9.16,1.76,12.69,5.29c3.52,3.52,5.29,7.75,5.29,12.69s-1.76,9.16-5.29,12.69c-3.53,3.52-7.75,5.29-12.69,5.29s-9.17-1.76-12.69-5.29Z"/>
        <path class="cls-2" d="M6059.84,1980.86c8.67,5.36,15.51,12.65,20.51,21.89,5,9.23,7.51,19.42,7.51,30.56s-2.47,21.54-7.4,29.92c-4.94,8.39-11.49,14.77-19.67,19.14-8.18,4.37-17.13,6.56-26.86,6.56-7.61,0-15.12-1.34-22.52-4.02-7.4-2.68-14.27-6.69-20.62-12.05-4.23,5.22-9.55,9.2-15.97,11.95-6.42,2.75-13.5,4.12-21.25,4.12-4.79,0-8.81-1.55-12.05-4.65-3.24-3.1-4.86-6.91-4.86-11.42s1.55-8.17,4.65-11c3.1-2.82,7.19-4.23,12.26-4.23,4.51,0,7.96-.81,10.36-2.43,2.4-1.62,4.12-3.84,5.18-6.66,1.06-2.82,2.29-7.19,3.7-13.11,1.41-6.06,2.4-10.01,2.96-11.84,4.37-16.07,11.24-28.55,20.62-37.43,9.37-8.88,20.76-13.32,34.15-13.32,10.85,0,20.62,2.68,29.29,8.04ZM6048.32,2052.87c5.08-4.58,7.61-11.1,7.61-19.56s-2.33-14.98-6.98-20.41c-4.65-5.43-10.79-8.14-18.4-8.14-5.78,0-10.47,1.94-14.06,5.82-3.6,3.88-6.8,10.04-9.62,18.5-1.41,4.09-2.47,8.39-3.17,12.9-.28.99-.53,2.15-.74,3.49-.21,1.34-.6,2.85-1.16,4.55,4.09,3.24,8.53,5.68,13.32,7.29,4.79,1.62,9.44,2.43,13.96,2.43,7.75,0,14.17-2.29,19.24-6.87Z"/>
        <path class="cls-2" d="M6249.42,1933.71v155.22h-139.14v-31.3h46.1l-31.51-103.41h32.99l31.51,103.41h28.12v-123.92h31.93ZM6161.87,1940.9h-43.98v-13.32h4.86c-3.24-2.96-4.86-7.12-4.86-12.48,0-6.34,2.4-11.53,7.19-15.54,4.79-4.02,10.64-6.03,17.55-6.03,5.36,0,10.64,1.27,15.86,3.81l-6.56,12.69c-2.96-1.13-5.64-1.69-8.04-1.69-3.1,0-5.64.74-7.61,2.22-1.98,1.48-2.96,3.7-2.96,6.66s1.09,5.6,3.28,7.51c2.18,1.9,4.97,2.86,8.35,2.86h16.92v13.32Z"/>
        <path class="cls-2" d="M6273.95,1933.71h31.93v155.22h-31.93v-155.22Z"/>
        <path class="cls-2" d="M6451.37,2057.62v31.3h-21.99c0,15.08-3.38,26.5-10.15,34.26-6.77,7.75-16.42,11.63-28.97,11.63-8.32,0-17.2-1.55-26.64-4.65l6.13-27.49c6.48,1.55,11.56,2.33,15.23,2.33,4.37,0,7.54-1.2,9.52-3.59,1.97-2.4,2.96-6.56,2.96-12.48v-101.5h31.93v70.21h21.99ZM6400.2,1963.52c-3.53-3.52-5.29-7.75-5.29-12.69s1.76-9.16,5.29-12.69,7.75-5.29,12.69-5.29,9.16,1.76,12.69,5.29c3.52,3.53,5.29,7.75,5.29,12.69s-1.76,9.17-5.29,12.69c-3.53,3.53-7.75,5.29-12.69,5.29s-9.17-1.76-12.69-5.29Z"/>
        <path class="cls-2" d="M6547.06,2005.18c11.77,12.55,17.66,30.03,17.66,52.44v31.3h-113.35c-4.93,0-8.81-1.55-11.63-4.65-2.82-3.1-4.23-6.77-4.23-11s1.41-7.89,4.23-11c2.82-3.1,6.7-4.65,11.63-4.65h81.41c0-17.9-5.82-30.63-17.45-38.17-11.63-7.54-28.44-11.31-50.43-11.31l-6.34-39.76c14.24-10.71,29.43-19.21,45.57-25.48,16.14-6.27,35.77-11.24,58.89-14.91l4.65,31.3c-12.83,1.55-25.48,4.3-37.96,8.25-12.48,3.95-23.51,8.6-33.09,13.96,21.85,3.25,38.66,11.14,50.43,23.68Z"/>
        <path class="cls-2" d="M6668.76,2057.62v31.3h-21.99c0,15.08-3.38,26.5-10.15,34.26-6.77,7.75-16.42,11.63-28.97,11.63-8.32,0-17.2-1.55-26.64-4.65l6.13-27.49c6.48,1.55,11.56,2.33,15.23,2.33,4.37,0,7.54-1.2,9.52-3.59,1.97-2.4,2.96-6.56,2.96-12.48v-101.5h31.93v70.21h21.99Z"/>
        <path class="cls-2" d="M6775.02,1980.86c8.67,5.36,15.51,12.65,20.51,21.89,5,9.23,7.51,19.42,7.51,30.56s-2.47,21.54-7.4,29.92c-4.94,8.39-11.49,14.77-19.67,19.14-8.18,4.37-17.13,6.56-26.86,6.56-7.61,0-15.12-1.34-22.52-4.02-7.4-2.68-14.27-6.69-20.62-12.05-4.23,5.22-9.55,9.2-15.97,11.95-6.42,2.75-13.5,4.12-21.25,4.12-4.79,0-8.81-1.55-12.05-4.65-3.24-3.1-4.86-6.91-4.86-11.42s1.55-8.17,4.65-11c3.1-2.82,7.19-4.23,12.27-4.23,4.51,0,7.96-.81,10.36-2.43,2.4-1.62,4.12-3.84,5.18-6.66,1.06-2.82,2.29-7.19,3.7-13.11,1.41-6.06,2.4-10.01,2.96-11.84,4.37-16.07,11.24-28.55,20.62-37.43,9.37-8.88,20.76-13.32,34.15-13.32,10.85,0,20.62,2.68,29.29,8.04ZM6763.49,2052.87c5.08-4.58,7.61-11.1,7.61-19.56s-2.33-14.98-6.98-20.41c-4.65-5.43-10.79-8.14-18.4-8.14-5.78,0-10.47,1.94-14.06,5.82-3.6,3.88-6.8,10.04-9.62,18.5-1.41,4.09-2.47,8.39-3.17,12.9-.28.99-.53,2.15-.74,3.49-.21,1.34-.6,2.85-1.16,4.55,4.09,3.24,8.53,5.68,13.32,7.29,4.79,1.62,9.44,2.43,13.96,2.43,7.75,0,14.17-2.29,19.24-6.87Z"/>
      </g>
    </g>
    <g>
      <path class="cls-2" d="M291.37,3554.74h-5.26c.93,4.67,1.4,10.05,1.4,16.13,0,29.92-10.46,51.95-31.38,66.09-20.92,14.14-53.35,21.21-97.3,21.21h-20.69c-26.18,0-49.67-4.09-70.47-12.27-20.81-8.18-37.29-20.81-49.44-37.87-12.16-17.07-18.23-38.57-18.23-64.51,0-18.93,3.39-39.62,10.17-62.06h49.44c-5.14,19.87-7.71,36.94-7.71,51.19,0,24.31,7.01,42.72,21.04,55.22,14.02,12.5,35.76,18.76,65.22,18.76h20.69c20.57,0,36.17-1.05,46.81-3.15,10.63-2.1,18.11-5.67,22.44-10.69,4.32-5.03,6.49-12.33,6.49-21.91,0-6.31-1.81-11.57-5.43-15.78-3.63-4.21-10.58-7.71-20.86-10.52l-17.18-3.86c-5.85-1.63-18.82-4.67-38.92-9.12l10.17-48.04c35.99,7.95,61.82,13.09,77.49,15.43,15.66,2.34,32.84,3.63,51.54,3.86v51.89ZM89.76,3729.35c-5.85-5.84-8.77-12.86-8.77-21.04s2.92-15.2,8.77-21.04c5.84-5.85,12.85-8.77,21.04-8.77s15.19,2.92,21.04,8.77c5.84,5.84,8.77,12.85,8.77,21.04s-2.93,15.19-8.77,21.04c-5.85,5.84-12.86,8.77-21.04,8.77s-15.2-2.92-21.04-8.77ZM159.53,3729.35c-5.85-5.84-8.77-12.86-8.77-21.04s2.92-15.2,8.77-21.04c5.84-5.85,12.85-8.77,21.04-8.77s15.19,2.92,21.04,8.77c5.84,5.84,8.77,12.85,8.77,21.04s-2.93,15.19-8.77,21.04c-5.85,5.84-12.86,8.77-21.04,8.77s-15.2-2.92-21.04-8.77Z"/>
      <path class="cls-2" d="M489.47,3554.74h-198.1c-7.71,0-14.32-2.51-19.81-7.54-5.49-5.02-8.24-11.16-8.24-18.41s2.75-13.38,8.24-18.41c5.49-5.02,12.1-7.54,19.81-7.54h24.19c-11.92-10.52-17.88-25.36-17.88-44.53s4.79-35.64,14.38-50.14c9.58-14.49,22.79-25.77,39.62-33.84,16.83-8.06,35.53-12.1,56.1-12.1,10.98,0,23.08,1.4,36.29,4.21,13.2,2.8,26.59,7.13,40.15,12.97l-18.23,47.33c-10.75-4.44-21.1-7.77-31.03-9.99-9.94-2.22-18.64-3.33-26.12-3.33-16.83,0-30.74,4.21-41.72,12.62-10.99,8.42-16.48,19.76-16.48,34.01,0,13.32,4.79,23.79,14.38,31.38,9.58,7.6,24.07,11.4,43.48,11.4h80.99v51.89Z"/>
      <path class="cls-2" d="M623.05,3502.85v51.89h-96.42v-257.36h52.94v205.47h43.48Z"/>
      <path class="cls-2" d="M799.24,3375.58c14.38,8.89,25.71,20.98,34.01,36.29,8.29,15.31,12.45,32.2,12.45,50.66s-4.09,35.71-12.27,49.61c-8.18,13.91-19.05,24.49-32.61,31.73-13.56,7.25-28.4,10.87-44.53,10.87-12.62,0-25.07-2.22-37.34-6.66-12.27-4.44-23.67-11.1-34.19-19.99-7.01,8.65-15.84,15.25-26.47,19.81-10.64,4.56-22.38,6.84-35.24,6.84-7.94,0-14.61-2.57-19.99-7.71-5.37-5.14-8.06-11.45-8.06-18.93s2.58-13.55,7.71-18.23c5.14-4.67,11.92-7.01,20.34-7.01,7.48,0,13.2-1.34,17.18-4.03,3.97-2.68,6.84-6.37,8.59-11.04,1.75-4.67,3.8-11.92,6.14-21.74,2.33-10.05,3.97-16.59,4.91-19.64,7.24-26.65,18.64-47.33,34.19-62.06,15.54-14.73,34.42-22.09,56.63-22.09,18,0,34.19,4.44,48.56,13.32ZM780.13,3494.96c8.41-7.59,12.62-18.41,12.62-32.43s-3.86-24.83-11.57-33.83c-7.71-9-17.88-13.5-30.5-13.5-9.59,0-17.36,3.22-23.32,9.64-5.96,6.43-11.28,16.65-15.95,30.68-2.34,6.78-4.09,13.91-5.26,21.39-.47,1.64-.88,3.57-1.23,5.79-.35,2.22-1,4.73-1.93,7.54,6.78,5.38,14.14,9.41,22.09,12.1,7.94,2.69,15.66,4.03,23.14,4.03,12.85,0,23.49-3.8,31.91-11.39ZM899.34,3502.85v51.89c-31.33,0-53.82-7.01-67.49-21.04-13.67-14.02-20.51-35.29-20.51-63.81,0-5.14.12-9.12.35-11.92h33.66c0,13.32,3.74,23.96,11.22,31.91,8.64,8.65,22.91,12.97,42.78,12.97Z"/>
      <path class="cls-2" d="M1050.11,3502.85v51.89c-37.17,0-62.3-10.28-75.38-30.86-8.41,9.82-18.99,17.42-31.73,22.79-12.74,5.38-27.29,8.06-43.65,8.06-7.94,0-14.61-2.57-19.99-7.71-5.37-5.14-8.06-11.45-8.06-18.93s2.58-13.55,7.71-18.23c5.14-4.67,11.92-7.01,20.34-7.01,12.85,0,23.37-3.74,31.56-11.22,8.18-7.48,12.27-18.7,12.27-33.66v-71.53h52.94v71.53c0,13.32,3.74,23.96,11.22,31.91,8.65,8.65,22.91,12.97,42.78,12.97ZM913.72,3346.12c-5.85-5.84-8.77-12.85-8.77-21.04s2.92-15.19,8.77-21.04c5.84-5.84,12.85-8.77,21.04-8.77s15.19,2.92,21.04,8.77c5.84,5.85,8.77,12.86,8.77,21.04s-2.93,15.2-8.77,21.04c-5.85,5.85-12.86,8.77-21.04,8.77s-15.2-2.92-21.04-8.77ZM983.49,3346.12c-5.84-5.84-8.77-12.85-8.77-21.04s2.92-15.19,8.77-21.04c5.84-5.84,12.85-8.77,21.04-8.77s15.19,2.92,21.04,8.77c5.84,5.85,8.77,12.86,8.77,21.04s-2.93,15.2-8.77,21.04c-5.85,5.85-12.86,8.77-21.04,8.77s-15.2-2.92-21.04-8.77Z"/>
      <path class="cls-2" d="M1260.83,3498.12c2.33,2.22,5.2,3.57,8.59,4.03,3.39.47,8.71.7,15.95.7v51.89h-234.92c-9.35,0-16.59-2.57-21.74-7.71s-7.71-11.22-7.71-18.23,2.57-13.09,7.71-18.23c5.14-5.14,12.39-7.71,21.74-7.71h154.27c-.24-.93-.47-1.98-.7-3.16-.24-1.17-.47-2.57-.7-4.21-3.04-17.76-7.07-31.85-12.1-42.25-5.03-10.4-11.52-18.41-19.46-24.02-16.13-11.22-36.23-16.83-60.31-16.83-13.09,0-26.18,1.87-39.27,5.61l-5.96-48.74c17.53-4.67,34.94-7.01,52.24-7.01,31.79,0,59.72,8.07,83.8,24.19,14.02,9.35,25.36,22.21,34.01,38.57,8.64,16.37,15.19,37.05,19.64,62.06.93,5.14,2.57,8.83,4.91,11.04ZM1138.82,3637.14c-5.85-5.85-8.77-12.86-8.77-21.04s2.92-15.2,8.77-21.04c5.84-5.85,12.85-8.77,21.04-8.77s15.19,2.92,21.04,8.77c5.84,5.84,8.77,12.85,8.77,21.04s-2.93,15.19-8.77,21.04c-5.85,5.84-12.86,8.77-21.04,8.77s-15.2-2.93-21.04-8.77Z"/>
      <path class="cls-2" d="M1553.25,3297.39v257.36h-230.71v-51.89h76.44l-52.24-171.45h54.7l52.24,171.45h46.63v-205.47h52.94Z"/>
      <path class="cls-2" d="M1590.42,3297.39h52.94v257.36h-52.94v-257.36Z"/>
      <path class="cls-2" d="M2031.15,3554.74h-41.02c-6.78,27.81-20.22,49.14-40.32,63.99-20.11,14.84-45.82,22.26-77.14,22.26-22.21,0-42.55-3.92-61.01-11.75-18.47-7.83-33.31-20.11-44.53-36.81-11.22-16.72-16.83-37.69-16.83-62.94,0-19.16,3.62-41.02,10.87-65.57h49.44c-5.84,21.97-8.77,40.91-8.77,56.8,0,45.81,23.61,68.72,70.83,68.72,23.61,0,41.02-6.31,52.24-18.93,11.22-12.62,16.83-32.26,16.83-58.9v-214.23h52.94v205.47h36.47v51.89Z"/>
      <path class="cls-2" d="M2262.56,3376.45c18,9.24,32.26,21.97,42.78,38.22,10.52,16.25,15.78,34.18,15.78,53.82v86.25h-289.96c-8.18,0-14.9-2.45-20.16-7.36-5.26-4.91-7.89-11.1-7.89-18.58s2.63-13.67,7.89-18.58c5.26-4.91,11.98-7.36,20.16-7.36h18.23v-140.6h52.59v51.54c9.82-16.83,23.26-29.57,40.32-38.22,17.06-8.65,37.28-12.97,60.66-12.97,21.74,0,41.6,4.62,59.61,13.85ZM2268.17,3468.49c0-15.89-5.85-28.69-17.53-38.39-11.69-9.7-27.58-14.55-47.69-14.55-17.3,0-33.54,3.51-48.74,10.52-15.2,7.01-27.58,16.89-37.17,29.63-9.59,12.74-14.73,27.41-15.43,44v3.16h166.54v-34.36Z"/>
      <path class="cls-2" d="M2358.28,3297.39h52.94v257.36h-52.94v-257.36Z"/>
      <path class="cls-2" d="M2673.84,3554.74h-37.17c-4.21,28.52-15.08,50.08-32.61,64.69-17.53,14.61-41.37,21.91-71.53,21.91-14.73,0-30.5-1.52-47.33-4.56v-51.19c15.19,2.1,28.4,3.15,39.62,3.15,16.13,0,28.93-2.75,38.39-8.24,9.47-5.49,15.95-14.09,19.46-25.77h-14.73c-27.58,0-50.31-4.38-68.2-13.15-17.88-8.77-30.92-20.28-39.09-34.54-8.18-14.25-12.27-29.8-12.27-46.63s4.21-32.96,12.62-47.68c8.41-14.73,21.62-26.65,39.62-35.76,18-9.12,40.67-13.67,68.02-13.67h69.77v139.55h35.41v51.89ZM2515.7,3490.58c10.75,8.18,28.4,12.27,52.94,12.27h17.53v-86.6h-18.23c-24.31,0-41.78,4.15-52.42,12.45-10.64,8.3-15.95,18.64-15.95,31.03s5.37,22.67,16.13,30.86Z"/>
      <path class="cls-2" d="M2824.6,3502.85v51.89c-37.17,0-62.3-10.28-75.38-30.86-8.41,9.82-18.99,17.42-31.73,22.79-12.74,5.38-27.29,8.06-43.65,8.06-7.94,0-14.61-2.57-19.99-7.71-5.37-5.14-8.06-11.45-8.06-18.93s2.58-13.55,7.71-18.23c5.14-4.67,11.92-7.01,20.34-7.01,12.85,0,23.37-3.74,31.56-11.22,8.18-7.48,12.27-18.7,12.27-33.66v-71.53h52.94v71.53c0,13.32,3.74,23.96,11.22,31.91,8.65,8.65,22.91,12.97,42.78,12.97ZM2688.21,3346.12c-5.85-5.84-8.77-12.85-8.77-21.04s2.92-15.19,8.77-21.04c5.84-5.84,12.85-8.77,21.04-8.77s15.19,2.92,21.04,8.77c5.84,5.85,8.77,12.86,8.77,21.04s-2.93,15.2-8.77,21.04c-5.85,5.85-12.86,8.77-21.04,8.77s-15.2-2.92-21.04-8.77ZM2757.98,3346.12c-5.84-5.84-8.77-12.85-8.77-21.04s2.92-15.19,8.77-21.04c5.84-5.84,12.85-8.77,21.04-8.77s15.19,2.92,21.04,8.77c5.84,5.85,8.77,12.86,8.77,21.04s-2.93,15.2-8.77,21.04c-5.85,5.85-12.86,8.77-21.04,8.77s-15.2-2.92-21.04-8.77Z"/>
      <path class="cls-2" d="M2868.43,3297.39h52.94v257.36h-96.77c-8.18,0-14.9-2.45-20.16-7.36-5.26-4.91-7.89-11.1-7.89-18.58s2.63-13.67,7.89-18.58c5.26-4.91,11.98-7.36,20.16-7.36h43.83v-205.47Z"/>
      <path class="cls-2" d="M2958.54,3297.39h52.94v257.36h-52.94v-257.36Z"/>
      <path class="cls-2" d="M3181.01,3542.12c-18.58-8.42-33.43-20.45-44.53-36.11-11.1-15.66-16.65-33.89-16.65-54.7,0-14.49,3.16-30.27,9.47-47.33h49.44c-4.44,14.72-6.66,27.47-6.66,38.22,0,19.17,5.9,34.07,17.71,44.7,11.8,10.64,29.04,15.95,51.72,15.95h137.09v-116.41h52.94v168.3h-190.04c-21.74,0-41.9-4.21-60.48-12.62ZM3219.4,3353.14c-5.84-5.84-8.77-12.85-8.77-21.04s2.92-15.19,8.77-21.04c5.84-5.84,12.85-8.77,21.04-8.77s15.19,2.93,21.04,8.77c5.84,5.85,8.77,12.86,8.77,21.04s-2.93,15.2-8.77,21.04-12.86,8.77-21.04,8.77-15.2-2.92-21.04-8.77ZM3289.17,3353.14c-5.85-5.84-8.77-12.85-8.77-21.04s2.92-15.19,8.77-21.04,12.85-8.77,21.04-8.77,15.19,2.93,21.04,8.77c5.84,5.85,8.77,12.86,8.77,21.04s-2.93,15.2-8.77,21.04c-5.85,5.85-12.86,8.77-21.04,8.77s-15.2-2.92-21.04-8.77Z"/>
      <path class="cls-2" d="M3565.11,3502.85v51.89h-96.42v-257.36h52.94v205.47h43.48Z"/>
      <path class="cls-2" d="M3908.37,3502.85v51.89c-36,0-60.78-9.82-74.33-29.45-8.42,9.35-19.17,16.6-32.26,21.74-13.09,5.14-27.58,7.71-43.48,7.71h-193.19c-8.18,0-14.9-2.45-20.16-7.36-5.26-4.91-7.89-11.1-7.89-18.58s2.63-13.67,7.89-18.58c5.26-4.91,11.98-7.36,20.16-7.36h18.23v-140.6h52.59v51.54c9.82-16.83,23.26-29.57,40.32-38.22,17.06-8.65,37.28-12.97,60.66-12.97,21.5,0,41.25,4.56,59.26,13.67,18,9.12,32.26,21.62,42.78,37.52,10.52,15.9,15.89,33.66,16.13,53.3,1.4,9.59,4.91,17.18,10.52,22.79,8.64,8.65,22.91,12.97,42.78,12.97ZM3802.13,3468.49c0-15.89-5.85-28.69-17.53-38.39-11.69-9.7-27.58-14.55-47.69-14.55-17.3,0-33.54,3.51-48.74,10.52-15.2,7.01-27.58,16.89-37.17,29.63-9.59,12.74-14.73,27.41-15.43,44v3.16h122.72c29.22,0,43.83-11.45,43.83-34.36Z"/>
      <path class="cls-2" d="M4059.14,3502.85v51.89c-37.17,0-62.3-10.28-75.38-30.86-8.41,9.82-18.99,17.42-31.73,22.79-12.74,5.38-27.29,8.06-43.65,8.06-7.94,0-14.61-2.57-19.99-7.71-5.37-5.14-8.06-11.45-8.06-18.93s2.58-13.55,7.71-18.23c5.14-4.67,11.92-7.01,20.34-7.01,12.85,0,23.37-3.74,31.56-11.22,8.18-7.48,12.27-18.7,12.27-33.66v-71.53h52.94v71.53c0,13.32,3.74,23.96,11.22,31.91,8.65,8.65,22.91,12.97,42.78,12.97ZM3956.76,3346.12c-5.84-5.84-8.77-12.85-8.77-21.04s2.92-15.19,8.77-21.04c5.84-5.84,12.85-8.77,21.04-8.77s15.19,2.92,21.04,8.77c5.84,5.85,8.77,12.86,8.77,21.04s-2.93,15.2-8.77,21.04c-5.84,5.85-12.86,8.77-21.04,8.77s-15.2-2.92-21.04-8.77Z"/>
      <path class="cls-2" d="M4235.32,3375.58c14.38,8.89,25.71,20.98,34.01,36.29,8.29,15.31,12.45,32.2,12.45,50.66s-4.09,35.71-12.27,49.61c-8.18,13.91-19.05,24.49-32.61,31.73-13.56,7.25-28.4,10.87-44.53,10.87-12.62,0-25.07-2.22-37.34-6.66-12.27-4.44-23.67-11.1-34.19-19.99-7.01,8.65-15.84,15.25-26.47,19.81-10.64,4.56-22.38,6.84-35.24,6.84-7.94,0-14.61-2.57-19.99-7.71-5.37-5.14-8.06-11.45-8.06-18.93s2.58-13.55,7.71-18.23c5.14-4.67,11.92-7.01,20.34-7.01,7.48,0,13.2-1.34,17.18-4.03,3.97-2.68,6.84-6.37,8.59-11.04,1.75-4.67,3.8-11.92,6.14-21.74,2.33-10.05,3.97-16.59,4.91-19.64,7.24-26.65,18.64-47.33,34.19-62.06,15.54-14.73,34.42-22.09,56.63-22.09,18,0,34.19,4.44,48.56,13.32ZM4216.22,3494.96c8.41-7.59,12.62-18.41,12.62-32.43s-3.86-24.83-11.57-33.83c-7.71-9-17.88-13.5-30.5-13.5-9.59,0-17.36,3.22-23.32,9.64-5.96,6.43-11.28,16.65-15.95,30.68-2.34,6.78-4.09,13.91-5.26,21.39-.47,1.64-.88,3.57-1.23,5.79-.35,2.22-1,4.73-1.93,7.54,6.78,5.38,14.14,9.41,22.09,12.1,7.94,2.69,15.66,4.03,23.14,4.03,12.85,0,23.49-3.8,31.91-11.39Z"/>
      <path class="cls-2" d="M4680.79,3554.74h-5.26c.93,4.67,1.4,10.05,1.4,16.13,0,29.92-10.46,51.95-31.38,66.09-20.92,14.14-53.35,21.21-97.3,21.21h-20.69c-26.18,0-49.67-4.09-70.48-12.27-20.81-8.18-37.29-20.81-49.44-37.87-12.16-17.07-18.23-38.57-18.23-64.51,0-18.93,3.39-39.62,10.17-62.06h49.44c-5.14,19.87-7.71,36.94-7.71,51.19,0,24.31,7.01,42.72,21.04,55.22,14.02,12.5,35.76,18.76,65.22,18.76h20.69c20.57,0,36.17-1.05,46.81-3.15,10.63-2.1,18.11-5.67,22.44-10.69,4.32-5.03,6.49-12.33,6.49-21.91,0-6.31-1.81-11.57-5.43-15.78-3.63-4.21-10.58-7.71-20.86-10.52l-17.18-3.86c-5.84-1.63-18.82-4.67-38.92-9.12l10.17-48.04c35.99,7.95,61.82,13.09,77.49,15.43,15.66,2.34,32.84,3.63,51.54,3.86v51.89Z"/>
      <path class="cls-2" d="M4831.56,3502.85v51.89c-37.17,0-62.3-10.28-75.38-30.86-8.41,9.82-18.99,17.42-31.73,22.79-12.74,5.38-27.29,8.06-43.65,8.06-8.18,0-14.9-2.45-20.16-7.36-5.26-4.91-7.89-11.1-7.89-18.58s2.63-13.67,7.89-18.58c5.26-4.91,11.98-7.36,20.16-7.36,12.85,0,23.37-3.74,31.56-11.22,8.18-7.48,12.27-18.7,12.27-33.66v-160.59h52.94v160.59c0,13.32,3.74,23.96,11.22,31.91,8.65,8.65,22.91,12.97,42.78,12.97Z"/>
      <path class="cls-2" d="M5029.66,3554.74h-198.1c-7.71,0-14.32-2.51-19.81-7.54-5.49-5.02-8.24-11.16-8.24-18.41s2.75-13.38,8.24-18.41c5.49-5.02,12.1-7.54,19.81-7.54h24.19c-11.92-10.52-17.88-25.36-17.88-44.53s4.79-35.64,14.38-50.14c9.58-14.49,22.79-25.77,39.62-33.84,16.83-8.06,35.53-12.1,56.1-12.1,10.98,0,23.08,1.4,36.29,4.21,13.2,2.8,26.59,7.13,40.15,12.97l-18.23,47.33c-10.75-4.44-21.1-7.77-31.03-9.99-9.94-2.22-18.64-3.33-26.12-3.33-16.83,0-30.74,4.21-41.72,12.62-10.99,8.42-16.48,19.76-16.48,34.01,0,13.32,4.79,23.79,14.38,31.38,9.58,7.6,24.07,11.4,43.48,11.4h80.99v51.89Z"/>
      <path class="cls-2" d="M5340.13,3491.63c8.06,7.48,18.52,11.22,31.38,11.22v51.89c-21.51,0-39.8-4.44-54.87-13.32-15.08-8.88-26.12-21.62-33.13-38.22-12.62,29.69-35.76,44.53-69.42,44.53-13.56,0-26.24-3.56-38.04-10.69-11.81-7.13-21.27-17.18-28.4-30.15-7.13-12.97-10.69-27.64-10.69-44,0-20.34,4.96-38.22,14.9-53.65,9.93-15.43,23.67-27.29,41.2-35.59,17.53-8.29,37.28-12.45,59.26-12.45,8.41,0,16.01.47,22.79,1.4v-16.13h52.94v111.5c0,14.96,4.03,26.18,12.1,33.66ZM5191.64,3317.37c-5.85-5.84-8.77-12.85-8.77-21.04s2.92-15.19,8.77-21.04c5.84-5.84,12.85-8.77,21.04-8.77s15.19,2.93,21.04,8.77c5.84,5.85,8.77,12.86,8.77,21.04s-2.93,15.2-8.77,21.04c-5.84,5.85-12.86,8.77-21.04,8.77s-15.2-2.92-21.04-8.77ZM5262.29,3480.41c8.53-10.75,12.8-25.36,12.8-43.83v-23.84c-7.71-1.17-14.61-1.75-20.69-1.75-18.93,0-34.54,4.62-46.81,13.85-12.27,9.24-18.41,21.68-18.41,37.34,0,10.99,3.62,19.46,10.87,25.42,7.24,5.96,16.59,8.94,28.05,8.94,14.25,0,25.65-5.38,34.19-16.13ZM5261.42,3317.37c-5.84-5.84-8.77-12.85-8.77-21.04s2.92-15.19,8.77-21.04c5.84-5.84,12.85-8.77,21.04-8.77s15.19,2.93,21.04,8.77c5.84,5.85,8.77,12.86,8.77,21.04s-2.93,15.2-8.77,21.04-12.86,8.77-21.04,8.77-15.2-2.92-21.04-8.77Z"/>
      <path class="cls-2" d="M5522.28,3502.85v51.89c-37.17,0-62.3-10.28-75.38-30.86-8.41,9.82-18.99,17.42-31.73,22.79-12.74,5.38-27.29,8.06-43.65,8.06-7.94,0-14.61-2.57-19.99-7.71-5.37-5.14-8.06-11.45-8.06-18.93s2.58-13.55,7.71-18.23c5.14-4.67,11.92-7.01,20.34-7.01,12.85,0,23.37-3.74,31.56-11.22,8.18-7.48,12.27-18.7,12.27-33.66v-71.53h52.94v71.53c0,13.32,3.74,23.96,11.22,31.91,8.65,8.65,22.91,12.97,42.78,12.97ZM5385.54,3636.79c-5.84-5.85-8.77-12.86-8.77-21.04s2.92-15.2,8.77-21.04c5.84-5.85,12.85-8.77,21.04-8.77s15.19,2.92,21.04,8.77,8.77,12.85,8.77,21.04-2.93,15.19-8.77,21.04c-5.85,5.84-12.86,8.77-21.04,8.77s-15.2-2.93-21.04-8.77ZM5455.31,3636.79c-5.85-5.85-8.77-12.86-8.77-21.04s2.92-15.2,8.77-21.04c5.84-5.85,12.85-8.77,21.04-8.77s15.19,2.92,21.04,8.77c5.84,5.84,8.77,12.85,8.77,21.04s-2.93,15.19-8.77,21.04c-5.85,5.84-12.86,8.77-21.04,8.77s-15.2-2.93-21.04-8.77Z"/>
      <path class="cls-2" d="M5698.47,3375.58c14.38,8.89,25.71,20.98,34.01,36.29,8.29,15.31,12.45,32.2,12.45,50.66s-4.09,35.71-12.27,49.61c-8.18,13.91-19.05,24.49-32.61,31.73-13.56,7.25-28.4,10.87-44.53,10.87-12.62,0-25.07-2.22-37.34-6.66-12.27-4.44-23.67-11.1-34.19-19.99-7.01,8.65-15.84,15.25-26.47,19.81-10.64,4.56-22.38,6.84-35.24,6.84-7.94,0-14.61-2.57-19.99-7.71-5.37-5.14-8.06-11.45-8.06-18.93s2.58-13.55,7.71-18.23c5.14-4.67,11.92-7.01,20.34-7.01,7.48,0,13.2-1.34,17.18-4.03,3.97-2.68,6.84-6.37,8.59-11.04,1.75-4.67,3.8-11.92,6.14-21.74,2.33-10.05,3.97-16.59,4.91-19.64,7.24-26.65,18.64-47.33,34.19-62.06,15.54-14.73,34.42-22.09,56.63-22.09,18,0,34.19,4.44,48.56,13.32ZM5679.36,3494.96c8.41-7.59,12.62-18.41,12.62-32.43s-3.86-24.83-11.57-33.83c-7.71-9-17.88-13.5-30.5-13.5-9.59,0-17.36,3.22-23.32,9.64-5.96,6.43-11.28,16.65-15.95,30.68-2.34,6.78-4.09,13.91-5.26,21.39-.47,1.64-.88,3.57-1.23,5.79-.35,2.22-1,4.73-1.93,7.54,6.78,5.38,14.14,9.41,22.09,12.1,7.94,2.69,15.66,4.03,23.14,4.03,12.85,0,23.49-3.8,31.91-11.39ZM5798.57,3502.85v51.89c-31.33,0-53.82-7.01-67.49-21.04-13.67-14.02-20.51-35.29-20.51-63.81,0-5.14.12-9.12.35-11.92h33.66c0,13.32,3.74,23.96,11.22,31.91,8.64,8.65,22.91,12.97,42.78,12.97Z"/>
      <path class="cls-2" d="M6126.75,3362.25v192.49h-72.23c-15.66,0-28.64-2.39-38.92-7.19-10.29-4.79-18.35-11.98-24.19-21.56-7.01,9.12-15.31,16.19-24.89,21.21-9.59,5.03-19.99,7.54-31.21,7.54h-136.74c-8.18,0-14.9-2.45-20.16-7.36-5.26-4.91-7.89-11.1-7.89-18.58s2.63-13.67,7.89-18.58c5.26-4.91,11.98-7.36,20.16-7.36h43.83v-129.03h52.94v129.03h32.96c19.86,0,29.8-14.96,29.8-44.88v-84.15h52.94v84.15c0,15.43,2.98,26.77,8.94,34.01,5.96,7.25,15.13,10.87,27.52,10.87h26.3v-140.6h52.94Z"/>
      <path class="cls-2" d="M6290.84,3502.85v51.89h-36.46c0,25.01-5.61,43.94-16.83,56.8-11.22,12.85-27.23,19.29-48.03,19.29-13.8,0-28.52-2.58-44.18-7.71l10.17-45.58c10.75,2.57,19.16,3.86,25.25,3.86,7.24,0,12.5-1.99,15.78-5.96,3.27-3.98,4.91-10.87,4.91-20.69v-168.3h52.94v116.41h36.46Z"/>
      <path class="cls-2" d="M6334.67,3297.39h52.94v257.36h-96.77c-8.18,0-14.9-2.45-20.16-7.36s-7.89-11.1-7.89-18.58,2.63-13.67,7.89-18.58c5.26-4.91,11.98-7.36,20.16-7.36h43.83v-205.47Z"/>
      <path class="cls-2" d="M6424.78,3297.39h52.94v257.36h-52.94v-257.36Z"/>
      <path class="cls-2" d="M6711.94,3502.85v51.89h-36.46c0,25.01-5.61,43.94-16.83,56.8-11.22,12.85-27.23,19.29-48.03,19.29-13.8,0-28.52-2.58-44.18-7.71l10.17-45.58c10.75,2.57,19.16,3.86,25.25,3.86,7.24,0,12.5-1.99,15.78-5.96,3.27-3.98,4.91-10.87,4.91-20.69v-168.3h52.94v116.41h36.46ZM6627.09,3346.82c-5.85-5.84-8.77-12.85-8.77-21.04s2.92-15.19,8.77-21.04c5.84-5.84,12.85-8.77,21.04-8.77s15.19,2.93,21.04,8.77c5.84,5.85,8.77,12.86,8.77,21.04s-2.92,15.2-8.77,21.04c-5.85,5.85-12.86,8.77-21.04,8.77s-15.2-2.92-21.04-8.77Z"/>
      <path class="cls-2" d="M6870.59,3415.9c19.52,20.81,29.28,49.79,29.28,86.95v51.89h-187.93c-8.18,0-14.61-2.57-19.28-7.71-4.67-5.14-7.01-11.22-7.01-18.23s2.34-13.09,7.01-18.23c4.68-5.14,11.1-7.71,19.28-7.71h134.99c0-29.68-9.64-50.78-28.93-63.29-19.28-12.5-47.16-18.76-83.62-18.76l-10.52-65.92c23.61-17.76,48.79-31.85,75.56-42.25,26.76-10.4,59.31-18.64,97.65-24.72l7.71,51.89c-21.27,2.58-42.25,7.13-62.94,13.67-20.69,6.55-38.98,14.26-54.87,23.14,36.23,5.38,64.1,18.47,83.62,39.27Z"/>
      <path class="cls-2" d="M7068.87,3502.85v51.89h-36.46c0,25.01-5.61,43.94-16.83,56.8-11.22,12.85-27.23,19.29-48.03,19.29-13.8,0-28.52-2.58-44.18-7.71l10.17-45.58c10.75,2.57,19.16,3.86,25.25,3.86,7.24,0,12.5-1.99,15.78-5.96,3.27-3.98,4.91-10.87,4.91-20.69v-168.3h52.94v116.41h36.46Z"/>
      <path class="cls-2" d="M7245.05,3375.58c14.38,8.89,25.71,20.98,34.01,36.29,8.3,15.31,12.45,32.2,12.45,50.66s-4.09,35.71-12.27,49.61c-8.18,13.91-19.05,24.49-32.61,31.73-13.56,7.25-28.4,10.87-44.53,10.87-12.62,0-25.07-2.22-37.34-6.66-12.27-4.44-23.67-11.1-34.18-19.99-7.01,8.65-15.84,15.25-26.47,19.81-10.64,4.56-22.39,6.84-35.24,6.84-7.94,0-14.61-2.57-19.99-7.71-5.37-5.14-8.06-11.45-8.06-18.93s2.57-13.55,7.71-18.23c5.14-4.67,11.92-7.01,20.34-7.01,7.48,0,13.2-1.34,17.18-4.03,3.97-2.68,6.84-6.37,8.59-11.04,1.75-4.67,3.8-11.92,6.14-21.74,2.33-10.05,3.97-16.59,4.91-19.64,7.24-26.65,18.64-47.33,34.18-62.06,15.54-14.73,34.42-22.09,56.63-22.09,18,0,34.19,4.44,48.56,13.32ZM7225.95,3494.96c8.42-7.59,12.62-18.41,12.62-32.43s-3.86-24.83-11.57-33.83c-7.71-9-17.88-13.5-30.5-13.5-9.59,0-17.36,3.22-23.32,9.64-5.96,6.43-11.28,16.65-15.95,30.68-2.34,6.78-4.09,13.91-5.26,21.39-.47,1.64-.88,3.57-1.23,5.79-.35,2.22-1,4.73-1.93,7.54,6.78,5.38,14.14,9.41,22.09,12.1,7.94,2.69,15.66,4.03,23.14,4.03,12.85,0,23.49-3.8,31.91-11.39ZM7345.16,3502.85v51.89c-31.33,0-53.82-7.01-67.5-21.04-13.67-14.02-20.51-35.29-20.51-63.81,0-5.14.12-9.12.35-11.92h33.66c0,13.32,3.74,23.96,11.22,31.91,8.65,8.65,22.91,12.97,42.78,12.97Z"/>
      <path class="cls-2" d="M7388.98,3297.39h52.94v257.36h-96.77c-8.18,0-14.9-2.45-20.16-7.36-5.26-4.91-7.89-11.1-7.89-18.58s2.63-13.67,7.89-18.58c5.26-4.91,11.98-7.36,20.16-7.36h43.83v-205.47Z"/>
      <path class="cls-2" d="M7479.09,3297.39h52.94v257.36h-52.94v-257.36Z"/>
      <path class="cls-2" d="M7701.56,3542.12c-18.58-8.42-33.43-20.45-44.53-36.11-11.1-15.66-16.65-33.89-16.65-54.7,0-14.49,3.15-30.27,9.47-47.33h49.44c-4.44,14.72-6.66,27.47-6.66,38.22,0,19.17,5.9,34.07,17.71,44.7,11.8,10.64,29.04,15.95,51.72,15.95h137.09v-116.41h52.94v168.3h-190.04c-21.74,0-41.9-4.21-60.48-12.62ZM7739.95,3353.14c-5.85-5.84-8.77-12.85-8.77-21.04s2.92-15.19,8.77-21.04c5.84-5.84,12.85-8.77,21.04-8.77s15.19,2.93,21.04,8.77c5.84,5.85,8.77,12.86,8.77,21.04s-2.93,15.2-8.77,21.04c-5.85,5.85-12.86,8.77-21.04,8.77s-15.2-2.92-21.04-8.77ZM7809.73,3353.14c-5.85-5.84-8.77-12.85-8.77-21.04s2.92-15.19,8.77-21.04,12.85-8.77,21.04-8.77,15.19,2.93,21.04,8.77c5.84,5.85,8.77,12.86,8.77,21.04s-2.93,15.2-8.77,21.04-12.86,8.77-21.04,8.77-15.2-2.92-21.04-8.77Z"/>
      <path class="cls-2" d="M8085.67,3502.85v51.89h-96.42v-257.36h52.94v205.47h43.48Z"/>
      <path class="cls-2" d="M8129.5,3386.45h52.94v168.3h-96.77c-7.94,0-14.61-2.57-19.99-7.71-5.37-5.14-8.06-11.45-8.06-18.93s2.57-13.55,7.71-18.23c5.14-4.67,11.92-7.01,20.34-7.01h43.83v-116.41ZM8118.63,3636.79c-5.85-5.85-8.77-12.86-8.77-21.04s2.92-15.2,8.77-21.04c5.84-5.85,12.85-8.77,21.04-8.77s15.19,2.92,21.04,8.77,8.77,12.85,8.77,21.04-2.93,15.19-8.77,21.04c-5.85,5.84-12.86,8.77-21.04,8.77s-15.2-2.93-21.04-8.77Z"/>
      <path class="cls-2" d="M8316.03,3502.85v51.89h-96.42v-257.36h52.94v205.47h43.48Z"/>
      <path class="cls-2" d="M8680.67,3502.85v51.89h-108.69c-15.66,0-28.64-2.39-38.92-7.19-10.29-4.79-18.35-11.98-24.19-21.56-7.01,9.12-15.31,16.19-24.89,21.21-9.59,5.03-19.99,7.54-31.21,7.54h-136.74c-8.18,0-14.9-2.45-20.16-7.36-5.26-4.91-7.89-11.1-7.89-18.58s2.63-13.67,7.89-18.58c5.26-4.91,11.98-7.36,20.16-7.36h43.83v-129.03h52.94v129.03h32.96c19.86,0,29.8-14.96,29.8-44.88v-84.15h52.94v84.15c0,15.43,2.98,26.77,8.94,34.01,5.96,7.25,15.13,10.87,27.52,10.87h26.3v-140.6h52.94v140.6h36.46Z"/>
      <path class="cls-2" d="M8891.39,3498.12c2.33,2.22,5.2,3.57,8.59,4.03,3.39.47,8.7.7,15.95.7v51.89h-234.92c-9.35,0-16.59-2.57-21.74-7.71s-7.71-11.22-7.71-18.23,2.57-13.09,7.71-18.23c5.14-5.14,12.39-7.71,21.74-7.71h154.27c-.24-.93-.47-1.98-.7-3.16-.24-1.17-.47-2.57-.7-4.21-3.04-17.76-7.07-31.85-12.1-42.25-5.03-10.4-11.52-18.41-19.46-24.02-16.13-11.22-36.23-16.83-60.31-16.83-13.09,0-26.18,1.87-39.27,5.61l-5.96-48.74c17.53-4.67,34.94-7.01,52.24-7.01,31.79,0,59.72,8.07,83.8,24.19,14.02,9.35,25.36,22.21,34.01,38.57,8.64,16.37,15.19,37.05,19.63,62.06.93,5.14,2.57,8.83,4.91,11.04Z"/>
      <path class="cls-2" d="M9285.84,3502.85v51.89h-90.46c-14.26,0-26.18-8.42-35.76-25.24-9.35,16.83-21.27,25.24-35.76,25.24-16.13,0-28.11,3.03-35.94,9.12-7.83,6.08-11.75,14.49-11.75,25.24,0,23.14,17.76,34.71,53.3,34.71h49.44v51.54h-49.44c-33.9,0-60.08-7.48-78.54-22.44-18.47-14.96-27.7-36.23-27.7-63.81,0-22.44,6.19-40.73,18.58-54.87,12.39-14.14,30.15-23.55,53.29-28.22l-40.32-40.67v-.7c0-18.93,4.61-36.23,13.85-51.89,9.23-15.66,21.85-27.99,37.87-36.99,16.01-9,33.71-13.5,53.12-13.5s37.46,4.5,53.47,13.5c16.01,9,28.63,21.33,37.87,36.99,9.23,15.66,13.85,32.96,13.85,51.89v.7l-37.52,37.52h58.55ZM9211.86,3449.91c-.7-5.14-3.39-10.4-8.06-15.78-4.68-5.37-10.93-9.87-18.76-13.5-7.83-3.62-16.3-5.43-25.42-5.43s-17.59,1.81-25.42,5.43c-7.83,3.63-14.09,8.13-18.76,13.5-4.68,5.38-7.36,10.64-8.06,15.78l52.24,53.65,52.24-53.65Z"/>
      <path class="cls-2" d="M9329.67,3386.45h52.94v168.3h-96.77c-7.94,0-14.61-2.57-19.99-7.71-5.37-5.14-8.06-11.45-8.06-18.93s2.57-13.55,7.71-18.23c5.14-4.67,11.92-7.01,20.34-7.01h43.83v-116.41ZM9318.8,3636.79c-5.85-5.85-8.77-12.86-8.77-21.04s2.92-15.2,8.77-21.04c5.84-5.85,12.85-8.77,21.04-8.77s15.19,2.92,21.04,8.77,8.77,12.85,8.77,21.04-2.93,15.19-8.77,21.04c-5.85,5.84-12.86,8.77-21.04,8.77s-15.2-2.93-21.04-8.77Z"/>
      <path class="cls-2" d="M9516.2,3502.85v51.89h-96.42v-257.36h52.94v205.47h43.48Z"/>
      <path class="cls-2" d="M9560.03,3386.45h52.94v168.3h-96.77c-7.94,0-14.61-2.57-19.99-7.71-5.37-5.14-8.06-11.45-8.06-18.93s2.57-13.55,7.71-18.23c5.14-4.67,11.92-7.01,20.34-7.01h43.83v-116.41ZM9529.88,3346.12c-5.85-5.84-8.77-12.85-8.77-21.04s2.92-15.19,8.77-21.04c5.84-5.84,12.85-8.77,21.04-8.77s15.19,2.92,21.04,8.77c5.84,5.85,8.77,12.86,8.77,21.04s-2.93,15.2-8.77,21.04-12.86,8.77-21.04,8.77-15.2-2.92-21.04-8.77ZM9599.65,3346.12c-5.85-5.84-8.77-12.85-8.77-21.04s2.92-15.19,8.77-21.04c5.84-5.84,12.85-8.77,21.04-8.77s15.19,2.92,21.04,8.77c5.84,5.85,8.77,12.86,8.77,21.04s-2.92,15.2-8.77,21.04c-5.85,5.85-12.86,8.77-21.04,8.77s-15.2-2.92-21.04-8.77Z"/>
    </g>
  </g>
</svg>